<?xml version="1.0" encoding="utf-8" standalone="no"?>
<!DOCTYPE svg PUBLIC "-//W3C//DTD SVG 1.1//EN"
  "http://www.w3.org/Graphics/SVG/1.1/DTD/svg11.dtd">
<!-- Created with matplotlib (https://matplotlib.org/) -->
<svg height="326.156719pt" version="1.1" viewBox="0 0 476.101356 326.156719" width="476.101356pt" xmlns="http://www.w3.org/2000/svg" xmlns:xlink="http://www.w3.org/1999/xlink">
 <metadata>
  <rdf:RDF xmlns:cc="http://creativecommons.org/ns#" xmlns:dc="http://purl.org/dc/elements/1.1/" xmlns:rdf="http://www.w3.org/1999/02/22-rdf-syntax-ns#">
   <cc:Work>
    <dc:type rdf:resource="http://purl.org/dc/dcmitype/StillImage"/>
    <dc:date>2021-03-24T17:20:16.437183</dc:date>
    <dc:format>image/svg+xml</dc:format>
    <dc:creator>
     <cc:Agent>
      <dc:title>Matplotlib v3.3.4, https://matplotlib.org/</dc:title>
     </cc:Agent>
    </dc:creator>
   </cc:Work>
  </rdf:RDF>
 </metadata>
 <defs>
  <style type="text/css">*{stroke-linecap:butt;stroke-linejoin:round;}</style>
 </defs>
 <g id="figure_1">
  <g id="patch_1">
   <path d="M 0 326.156719 
L 476.101356 326.156719 
L 476.101356 0 
L 0 0 
z
" style="fill:none;"/>
  </g>
  <g id="axes_1">
   <g id="patch_2">
    <path d="M 42.828125 87.238594 
L 160.428125 87.238594 
L 160.428125 20.038594 
L 42.828125 20.038594 
z
" style="fill:#ffffff;"/>
   </g>
   <g id="matplotlib.axis_1">
    <g id="xtick_1">
     <g id="line2d_1">
      <defs>
       <path d="M 0 0 
L 0 3.5 
" id="m792c3beaa6" style="stroke:#000000;stroke-width:0.8;"/>
      </defs>
      <g>
       <use style="stroke:#000000;stroke-width:0.8;" x="47.938356" xlink:href="#m792c3beaa6" y="87.238594"/>
      </g>
     </g>
     <g id="text_1">
      <!-- 0.0 -->
      <g transform="translate(39.986794 101.837031)scale(0.1 -0.1)">
       <defs>
        <path d="M 31.78125 66.40625 
Q 24.171875 66.40625 20.328125 58.90625 
Q 16.5 51.421875 16.5 36.375 
Q 16.5 21.390625 20.328125 13.890625 
Q 24.171875 6.390625 31.78125 6.390625 
Q 39.453125 6.390625 43.28125 13.890625 
Q 47.125 21.390625 47.125 36.375 
Q 47.125 51.421875 43.28125 58.90625 
Q 39.453125 66.40625 31.78125 66.40625 
z
M 31.78125 74.21875 
Q 44.046875 74.21875 50.515625 64.515625 
Q 56.984375 54.828125 56.984375 36.375 
Q 56.984375 17.96875 50.515625 8.265625 
Q 44.046875 -1.421875 31.78125 -1.421875 
Q 19.53125 -1.421875 13.0625 8.265625 
Q 6.59375 17.96875 6.59375 36.375 
Q 6.59375 54.828125 13.0625 64.515625 
Q 19.53125 74.21875 31.78125 74.21875 
z
" id="DejaVuSans-48"/>
        <path d="M 10.6875 12.40625 
L 21 12.40625 
L 21 0 
L 10.6875 0 
z
" id="DejaVuSans-46"/>
       </defs>
       <use xlink:href="#DejaVuSans-48"/>
       <use x="63.623047" xlink:href="#DejaVuSans-46"/>
       <use x="95.410156" xlink:href="#DejaVuSans-48"/>
      </g>
     </g>
    </g>
    <g id="xtick_2">
     <g id="line2d_2">
      <g>
       <use style="stroke:#000000;stroke-width:0.8;" x="106.685431" xlink:href="#m792c3beaa6" y="87.238594"/>
      </g>
     </g>
     <g id="text_2">
      <!-- 0.5 -->
      <g transform="translate(98.733868 101.837031)scale(0.1 -0.1)">
       <defs>
        <path d="M 10.796875 72.90625 
L 49.515625 72.90625 
L 49.515625 64.59375 
L 19.828125 64.59375 
L 19.828125 46.734375 
Q 21.96875 47.46875 24.109375 47.828125 
Q 26.265625 48.1875 28.421875 48.1875 
Q 40.625 48.1875 47.75 41.5 
Q 54.890625 34.8125 54.890625 23.390625 
Q 54.890625 11.625 47.5625 5.09375 
Q 40.234375 -1.421875 26.90625 -1.421875 
Q 22.3125 -1.421875 17.546875 -0.640625 
Q 12.796875 0.140625 7.71875 1.703125 
L 7.71875 11.625 
Q 12.109375 9.234375 16.796875 8.0625 
Q 21.484375 6.890625 26.703125 6.890625 
Q 35.15625 6.890625 40.078125 11.328125 
Q 45.015625 15.765625 45.015625 23.390625 
Q 45.015625 31 40.078125 35.4375 
Q 35.15625 39.890625 26.703125 39.890625 
Q 22.75 39.890625 18.8125 39.015625 
Q 14.890625 38.140625 10.796875 36.28125 
z
" id="DejaVuSans-53"/>
       </defs>
       <use xlink:href="#DejaVuSans-48"/>
       <use x="63.623047" xlink:href="#DejaVuSans-46"/>
       <use x="95.410156" xlink:href="#DejaVuSans-53"/>
      </g>
     </g>
    </g>
   </g>
   <g id="matplotlib.axis_2">
    <g id="ytick_1">
     <g id="line2d_3">
      <defs>
       <path d="M 0 0 
L -3.5 0 
" id="m190816f427" style="stroke:#000000;stroke-width:0.8;"/>
      </defs>
      <g>
       <use style="stroke:#000000;stroke-width:0.8;" x="42.828125" xlink:href="#m190816f427" y="73.917523"/>
      </g>
     </g>
     <g id="text_3">
      <!-- 0.50 -->
      <g transform="translate(13.5625 77.716742)scale(0.1 -0.1)">
       <use xlink:href="#DejaVuSans-48"/>
       <use x="63.623047" xlink:href="#DejaVuSans-46"/>
       <use x="95.410156" xlink:href="#DejaVuSans-53"/>
       <use x="159.033203" xlink:href="#DejaVuSans-48"/>
      </g>
     </g>
    </g>
    <g id="ytick_2">
     <g id="line2d_4">
      <g>
       <use style="stroke:#000000;stroke-width:0.8;" x="42.828125" xlink:href="#m190816f427" y="48.505331"/>
      </g>
     </g>
     <g id="text_4">
      <!-- 0.75 -->
      <g transform="translate(13.5625 52.30455)scale(0.1 -0.1)">
       <defs>
        <path d="M 8.203125 72.90625 
L 55.078125 72.90625 
L 55.078125 68.703125 
L 28.609375 0 
L 18.3125 0 
L 43.21875 64.59375 
L 8.203125 64.59375 
z
" id="DejaVuSans-55"/>
       </defs>
       <use xlink:href="#DejaVuSans-48"/>
       <use x="63.623047" xlink:href="#DejaVuSans-46"/>
       <use x="95.410156" xlink:href="#DejaVuSans-55"/>
       <use x="159.033203" xlink:href="#DejaVuSans-53"/>
      </g>
     </g>
    </g>
    <g id="ytick_3">
     <g id="line2d_5">
      <g>
       <use style="stroke:#000000;stroke-width:0.8;" x="42.828125" xlink:href="#m190816f427" y="23.093139"/>
      </g>
     </g>
     <g id="text_5">
      <!-- 1.00 -->
      <g transform="translate(13.5625 26.892358)scale(0.1 -0.1)">
       <defs>
        <path d="M 12.40625 8.296875 
L 28.515625 8.296875 
L 28.515625 63.921875 
L 10.984375 60.40625 
L 10.984375 69.390625 
L 28.421875 72.90625 
L 38.28125 72.90625 
L 38.28125 8.296875 
L 54.390625 8.296875 
L 54.390625 0 
L 12.40625 0 
z
" id="DejaVuSans-49"/>
       </defs>
       <use xlink:href="#DejaVuSans-49"/>
       <use x="63.623047" xlink:href="#DejaVuSans-46"/>
       <use x="95.410156" xlink:href="#DejaVuSans-48"/>
       <use x="159.033203" xlink:href="#DejaVuSans-48"/>
      </g>
     </g>
    </g>
   </g>
   <g id="line2d_6">
    <path clip-path="url(#p7f49033a3d)" d="M 155.08267 23.093139 
L 152.259988 23.093139 
L 150.3782 23.093139 
L 148.025965 23.093139 
L 145.791341 23.093139 
L 143.439106 23.093139 
L 140.028365 23.093139 
L 135.559118 23.093139 
L 132.148377 23.093139 
L 128.620024 23.093139 
L 123.562718 23.093139 
L 120.269589 23.194788 
L 117.68213 23.194788 
L 112.742436 23.296437 
L 107.214684 23.296437 
L 102.510213 23.296437 
L 96.864849 23.499734 
L 92.160378 23.601383 
L 88.161578 23.703032 
L 84.162778 23.804681 
L 80.869649 24.109627 
L 78.164579 24.211276 
L 74.753838 24.516222 
L 71.343096 25.024466 
L 69.226085 25.227763 
L 66.168179 26.040953 
L 63.815944 26.650846 
L 61.463709 27.362387 
L 59.934756 27.97228 
L 58.993862 29.090416 
L 57.229685 29.903607 
L 54.759838 31.123392 
L 53.818944 32.546475 
L 53.113274 34.884396 
L 52.525215 36.409128 
L 51.819544 38.645401 
L 51.466709 41.084971 
L 50.525815 43.422893 
L 49.937756 46.675653 
L 49.467309 49.725116 
L 49.349697 52.67293 
L 49.114474 55.620745 
L 48.526415 59.076803 
L 48.526415 62.329563 
L 48.526415 65.988919 
L 48.291191 69.140031 
L 48.291191 72.799386 
L 48.17358 76.357093 
L 48.17358 80.829639 
L 48.17358 84.184048 
" style="fill:none;stroke:#1f77b4;stroke-linecap:square;stroke-width:1.5;"/>
   </g>
   <g id="patch_3">
    <path d="M 42.828125 87.238594 
L 42.828125 20.038594 
" style="fill:none;stroke:#000000;stroke-linecap:square;stroke-linejoin:miter;stroke-width:0.8;"/>
   </g>
   <g id="patch_4">
    <path d="M 160.428125 87.238594 
L 160.428125 20.038594 
" style="fill:none;stroke:#000000;stroke-linecap:square;stroke-linejoin:miter;stroke-width:0.8;"/>
   </g>
   <g id="patch_5">
    <path d="M 42.828125 87.238594 
L 160.428125 87.238594 
" style="fill:none;stroke:#000000;stroke-linecap:square;stroke-linejoin:miter;stroke-width:0.8;"/>
   </g>
   <g id="patch_6">
    <path d="M 42.828125 20.038594 
L 160.428125 20.038594 
" style="fill:none;stroke:#000000;stroke-linecap:square;stroke-linejoin:miter;stroke-width:0.8;"/>
   </g>
   <g id="text_6">
    <!-- BayesA on DataA -->
    <g transform="translate(62.639844 14.038594)scale(0.09 -0.09)">
     <defs>
      <path d="M 19.671875 34.8125 
L 19.671875 8.109375 
L 35.5 8.109375 
Q 43.453125 8.109375 47.28125 11.40625 
Q 51.125 14.703125 51.125 21.484375 
Q 51.125 28.328125 47.28125 31.5625 
Q 43.453125 34.8125 35.5 34.8125 
z
M 19.671875 64.796875 
L 19.671875 42.828125 
L 34.28125 42.828125 
Q 41.5 42.828125 45.03125 45.53125 
Q 48.578125 48.25 48.578125 53.8125 
Q 48.578125 59.328125 45.03125 62.0625 
Q 41.5 64.796875 34.28125 64.796875 
z
M 9.8125 72.90625 
L 35.015625 72.90625 
Q 46.296875 72.90625 52.390625 68.21875 
Q 58.5 63.53125 58.5 54.890625 
Q 58.5 48.1875 55.375 44.234375 
Q 52.25 40.28125 46.1875 39.3125 
Q 53.46875 37.75 57.5 32.78125 
Q 61.53125 27.828125 61.53125 20.40625 
Q 61.53125 10.640625 54.890625 5.3125 
Q 48.25 0 35.984375 0 
L 9.8125 0 
z
" id="DejaVuSans-66"/>
      <path d="M 34.28125 27.484375 
Q 23.390625 27.484375 19.1875 25 
Q 14.984375 22.515625 14.984375 16.5 
Q 14.984375 11.71875 18.140625 8.90625 
Q 21.296875 6.109375 26.703125 6.109375 
Q 34.1875 6.109375 38.703125 11.40625 
Q 43.21875 16.703125 43.21875 25.484375 
L 43.21875 27.484375 
z
M 52.203125 31.203125 
L 52.203125 0 
L 43.21875 0 
L 43.21875 8.296875 
Q 40.140625 3.328125 35.546875 0.953125 
Q 30.953125 -1.421875 24.3125 -1.421875 
Q 15.921875 -1.421875 10.953125 3.296875 
Q 6 8.015625 6 15.921875 
Q 6 25.140625 12.171875 29.828125 
Q 18.359375 34.515625 30.609375 34.515625 
L 43.21875 34.515625 
L 43.21875 35.40625 
Q 43.21875 41.609375 39.140625 45 
Q 35.0625 48.390625 27.6875 48.390625 
Q 23 48.390625 18.546875 47.265625 
Q 14.109375 46.140625 10.015625 43.890625 
L 10.015625 52.203125 
Q 14.9375 54.109375 19.578125 55.046875 
Q 24.21875 56 28.609375 56 
Q 40.484375 56 46.34375 49.84375 
Q 52.203125 43.703125 52.203125 31.203125 
z
" id="DejaVuSans-97"/>
      <path d="M 32.171875 -5.078125 
Q 28.375 -14.84375 24.75 -17.8125 
Q 21.140625 -20.796875 15.09375 -20.796875 
L 7.90625 -20.796875 
L 7.90625 -13.28125 
L 13.1875 -13.28125 
Q 16.890625 -13.28125 18.9375 -11.515625 
Q 21 -9.765625 23.484375 -3.21875 
L 25.09375 0.875 
L 2.984375 54.6875 
L 12.5 54.6875 
L 29.59375 11.921875 
L 46.6875 54.6875 
L 56.203125 54.6875 
z
" id="DejaVuSans-121"/>
      <path d="M 56.203125 29.59375 
L 56.203125 25.203125 
L 14.890625 25.203125 
Q 15.484375 15.921875 20.484375 11.0625 
Q 25.484375 6.203125 34.421875 6.203125 
Q 39.59375 6.203125 44.453125 7.46875 
Q 49.3125 8.734375 54.109375 11.28125 
L 54.109375 2.78125 
Q 49.265625 0.734375 44.1875 -0.34375 
Q 39.109375 -1.421875 33.890625 -1.421875 
Q 20.796875 -1.421875 13.15625 6.1875 
Q 5.515625 13.8125 5.515625 26.8125 
Q 5.515625 40.234375 12.765625 48.109375 
Q 20.015625 56 32.328125 56 
Q 43.359375 56 49.78125 48.890625 
Q 56.203125 41.796875 56.203125 29.59375 
z
M 47.21875 32.234375 
Q 47.125 39.59375 43.09375 43.984375 
Q 39.0625 48.390625 32.421875 48.390625 
Q 24.90625 48.390625 20.390625 44.140625 
Q 15.875 39.890625 15.1875 32.171875 
z
" id="DejaVuSans-101"/>
      <path d="M 44.28125 53.078125 
L 44.28125 44.578125 
Q 40.484375 46.53125 36.375 47.5 
Q 32.28125 48.484375 27.875 48.484375 
Q 21.1875 48.484375 17.84375 46.4375 
Q 14.5 44.390625 14.5 40.28125 
Q 14.5 37.15625 16.890625 35.375 
Q 19.28125 33.59375 26.515625 31.984375 
L 29.59375 31.296875 
Q 39.15625 29.25 43.1875 25.515625 
Q 47.21875 21.78125 47.21875 15.09375 
Q 47.21875 7.46875 41.1875 3.015625 
Q 35.15625 -1.421875 24.609375 -1.421875 
Q 20.21875 -1.421875 15.453125 -0.5625 
Q 10.6875 0.296875 5.421875 2 
L 5.421875 11.28125 
Q 10.40625 8.6875 15.234375 7.390625 
Q 20.0625 6.109375 24.8125 6.109375 
Q 31.15625 6.109375 34.5625 8.28125 
Q 37.984375 10.453125 37.984375 14.40625 
Q 37.984375 18.0625 35.515625 20.015625 
Q 33.0625 21.96875 24.703125 23.78125 
L 21.578125 24.515625 
Q 13.234375 26.265625 9.515625 29.90625 
Q 5.8125 33.546875 5.8125 39.890625 
Q 5.8125 47.609375 11.28125 51.796875 
Q 16.75 56 26.8125 56 
Q 31.78125 56 36.171875 55.265625 
Q 40.578125 54.546875 44.28125 53.078125 
z
" id="DejaVuSans-115"/>
      <path d="M 34.1875 63.1875 
L 20.796875 26.90625 
L 47.609375 26.90625 
z
M 28.609375 72.90625 
L 39.796875 72.90625 
L 67.578125 0 
L 57.328125 0 
L 50.6875 18.703125 
L 17.828125 18.703125 
L 11.1875 0 
L 0.78125 0 
z
" id="DejaVuSans-65"/>
      <path id="DejaVuSans-32"/>
      <path d="M 30.609375 48.390625 
Q 23.390625 48.390625 19.1875 42.75 
Q 14.984375 37.109375 14.984375 27.296875 
Q 14.984375 17.484375 19.15625 11.84375 
Q 23.34375 6.203125 30.609375 6.203125 
Q 37.796875 6.203125 41.984375 11.859375 
Q 46.1875 17.53125 46.1875 27.296875 
Q 46.1875 37.015625 41.984375 42.703125 
Q 37.796875 48.390625 30.609375 48.390625 
z
M 30.609375 56 
Q 42.328125 56 49.015625 48.375 
Q 55.71875 40.765625 55.71875 27.296875 
Q 55.71875 13.875 49.015625 6.21875 
Q 42.328125 -1.421875 30.609375 -1.421875 
Q 18.84375 -1.421875 12.171875 6.21875 
Q 5.515625 13.875 5.515625 27.296875 
Q 5.515625 40.765625 12.171875 48.375 
Q 18.84375 56 30.609375 56 
z
" id="DejaVuSans-111"/>
      <path d="M 54.890625 33.015625 
L 54.890625 0 
L 45.90625 0 
L 45.90625 32.71875 
Q 45.90625 40.484375 42.875 44.328125 
Q 39.84375 48.1875 33.796875 48.1875 
Q 26.515625 48.1875 22.3125 43.546875 
Q 18.109375 38.921875 18.109375 30.90625 
L 18.109375 0 
L 9.078125 0 
L 9.078125 54.6875 
L 18.109375 54.6875 
L 18.109375 46.1875 
Q 21.34375 51.125 25.703125 53.5625 
Q 30.078125 56 35.796875 56 
Q 45.21875 56 50.046875 50.171875 
Q 54.890625 44.34375 54.890625 33.015625 
z
" id="DejaVuSans-110"/>
      <path d="M 19.671875 64.796875 
L 19.671875 8.109375 
L 31.59375 8.109375 
Q 46.6875 8.109375 53.6875 14.9375 
Q 60.6875 21.78125 60.6875 36.53125 
Q 60.6875 51.171875 53.6875 57.984375 
Q 46.6875 64.796875 31.59375 64.796875 
z
M 9.8125 72.90625 
L 30.078125 72.90625 
Q 51.265625 72.90625 61.171875 64.09375 
Q 71.09375 55.28125 71.09375 36.53125 
Q 71.09375 17.671875 61.125 8.828125 
Q 51.171875 0 30.078125 0 
L 9.8125 0 
z
" id="DejaVuSans-68"/>
      <path d="M 18.3125 70.21875 
L 18.3125 54.6875 
L 36.8125 54.6875 
L 36.8125 47.703125 
L 18.3125 47.703125 
L 18.3125 18.015625 
Q 18.3125 11.328125 20.140625 9.421875 
Q 21.96875 7.515625 27.59375 7.515625 
L 36.8125 7.515625 
L 36.8125 0 
L 27.59375 0 
Q 17.1875 0 13.234375 3.875 
Q 9.28125 7.765625 9.28125 18.015625 
L 9.28125 47.703125 
L 2.6875 47.703125 
L 2.6875 54.6875 
L 9.28125 54.6875 
L 9.28125 70.21875 
z
" id="DejaVuSans-116"/>
     </defs>
     <use xlink:href="#DejaVuSans-66"/>
     <use x="68.603516" xlink:href="#DejaVuSans-97"/>
     <use x="129.882812" xlink:href="#DejaVuSans-121"/>
     <use x="189.0625" xlink:href="#DejaVuSans-101"/>
     <use x="250.585938" xlink:href="#DejaVuSans-115"/>
     <use x="302.685547" xlink:href="#DejaVuSans-65"/>
     <use x="371.09375" xlink:href="#DejaVuSans-32"/>
     <use x="402.880859" xlink:href="#DejaVuSans-111"/>
     <use x="464.0625" xlink:href="#DejaVuSans-110"/>
     <use x="527.441406" xlink:href="#DejaVuSans-32"/>
     <use x="559.228516" xlink:href="#DejaVuSans-68"/>
     <use x="636.230469" xlink:href="#DejaVuSans-97"/>
     <use x="697.509766" xlink:href="#DejaVuSans-116"/>
     <use x="736.71875" xlink:href="#DejaVuSans-97"/>
     <use x="797.998047" xlink:href="#DejaVuSans-65"/>
    </g>
   </g>
  </g>
  <g id="axes_2">
   <g id="patch_7">
    <path d="M 195.708125 87.238594 
L 313.308125 87.238594 
L 313.308125 20.038594 
L 195.708125 20.038594 
z
" style="fill:#ffffff;"/>
   </g>
   <g id="matplotlib.axis_3">
    <g id="xtick_3">
     <g id="line2d_7">
      <g>
       <use style="stroke:#000000;stroke-width:0.8;" x="201.05358" xlink:href="#m792c3beaa6" y="87.238594"/>
      </g>
     </g>
     <g id="text_7">
      <!-- 0.0 -->
      <g transform="translate(193.102017 101.837031)scale(0.1 -0.1)">
       <use xlink:href="#DejaVuSans-48"/>
       <use x="63.623047" xlink:href="#DejaVuSans-46"/>
       <use x="95.410156" xlink:href="#DejaVuSans-48"/>
      </g>
     </g>
    </g>
    <g id="xtick_4">
     <g id="line2d_8">
      <g>
       <use style="stroke:#000000;stroke-width:0.8;" x="254.508125" xlink:href="#m792c3beaa6" y="87.238594"/>
      </g>
     </g>
     <g id="text_8">
      <!-- 0.5 -->
      <g transform="translate(246.556562 101.837031)scale(0.1 -0.1)">
       <use xlink:href="#DejaVuSans-48"/>
       <use x="63.623047" xlink:href="#DejaVuSans-46"/>
       <use x="95.410156" xlink:href="#DejaVuSans-53"/>
      </g>
     </g>
    </g>
    <g id="xtick_5">
     <g id="line2d_9">
      <g>
       <use style="stroke:#000000;stroke-width:0.8;" x="307.96267" xlink:href="#m792c3beaa6" y="87.238594"/>
      </g>
     </g>
     <g id="text_9">
      <!-- 1.0 -->
      <g transform="translate(300.011108 101.837031)scale(0.1 -0.1)">
       <use xlink:href="#DejaVuSans-49"/>
       <use x="63.623047" xlink:href="#DejaVuSans-46"/>
       <use x="95.410156" xlink:href="#DejaVuSans-48"/>
      </g>
     </g>
    </g>
   </g>
   <g id="matplotlib.axis_4">
    <g id="ytick_4">
     <g id="line2d_10">
      <g>
       <use style="stroke:#000000;stroke-width:0.8;" x="195.708125" xlink:href="#m190816f427" y="84.184048"/>
      </g>
     </g>
     <g id="text_10">
      <!-- 0.0 -->
      <g transform="translate(172.805 87.983267)scale(0.1 -0.1)">
       <use xlink:href="#DejaVuSans-48"/>
       <use x="63.623047" xlink:href="#DejaVuSans-46"/>
       <use x="95.410156" xlink:href="#DejaVuSans-48"/>
      </g>
     </g>
    </g>
    <g id="ytick_5">
     <g id="line2d_11">
      <g>
       <use style="stroke:#000000;stroke-width:0.8;" x="195.708125" xlink:href="#m190816f427" y="53.638594"/>
      </g>
     </g>
     <g id="text_11">
      <!-- 0.5 -->
      <g transform="translate(172.805 57.437812)scale(0.1 -0.1)">
       <use xlink:href="#DejaVuSans-48"/>
       <use x="63.623047" xlink:href="#DejaVuSans-46"/>
       <use x="95.410156" xlink:href="#DejaVuSans-53"/>
      </g>
     </g>
    </g>
    <g id="ytick_6">
     <g id="line2d_12">
      <g>
       <use style="stroke:#000000;stroke-width:0.8;" x="195.708125" xlink:href="#m190816f427" y="23.093139"/>
      </g>
     </g>
     <g id="text_12">
      <!-- 1.0 -->
      <g transform="translate(172.805 26.892358)scale(0.1 -0.1)">
       <use xlink:href="#DejaVuSans-49"/>
       <use x="63.623047" xlink:href="#DejaVuSans-46"/>
       <use x="95.410156" xlink:href="#DejaVuSans-48"/>
      </g>
     </g>
    </g>
   </g>
   <g id="line2d_13">
    <path clip-path="url(#p7dc20d8a0d)" d="M 307.96267 23.093139 
L 307.96267 23.093139 
L 307.96267 23.093139 
L 307.96267 23.093139 
L 307.96267 23.093139 
L 307.96267 23.093139 
L 307.96267 23.093139 
L 307.96267 23.093139 
L 307.96267 23.093139 
L 307.96267 23.093139 
L 307.96267 23.093139 
L 307.96267 23.093139 
L 307.96267 23.093139 
L 307.96267 23.093139 
L 307.96267 23.093139 
L 307.96267 23.093139 
L 307.96267 23.093139 
L 307.96267 23.093139 
L 307.96267 23.093139 
L 307.96267 23.093139 
L 307.96267 23.093139 
L 307.96267 23.093139 
L 307.96267 23.093139 
L 307.96267 23.093139 
L 307.106542 23.581866 
L 201.802692 83.756412 
L 201.05358 84.184048 
L 201.05358 84.184048 
L 201.05358 84.184048 
L 201.05358 84.184048 
L 201.05358 84.184048 
L 201.05358 84.184048 
L 201.05358 84.184048 
L 201.05358 84.184048 
L 201.05358 84.184048 
L 201.05358 84.184048 
L 201.05358 84.184048 
L 201.05358 84.184048 
L 201.05358 84.184048 
L 201.05358 84.184048 
L 201.05358 84.184048 
L 201.05358 84.184048 
L 201.05358 84.184048 
L 201.05358 84.184048 
L 201.05358 84.184048 
L 201.05358 84.184048 
L 201.05358 84.184048 
L 201.05358 84.184048 
L 201.05358 84.184048 
L 201.05358 84.184048 
" style="fill:none;stroke:#1f77b4;stroke-linecap:square;stroke-width:1.5;"/>
   </g>
   <g id="patch_8">
    <path d="M 195.708125 87.238594 
L 195.708125 20.038594 
" style="fill:none;stroke:#000000;stroke-linecap:square;stroke-linejoin:miter;stroke-width:0.8;"/>
   </g>
   <g id="patch_9">
    <path d="M 313.308125 87.238594 
L 313.308125 20.038594 
" style="fill:none;stroke:#000000;stroke-linecap:square;stroke-linejoin:miter;stroke-width:0.8;"/>
   </g>
   <g id="patch_10">
    <path d="M 195.708125 87.238594 
L 313.308125 87.238594 
" style="fill:none;stroke:#000000;stroke-linecap:square;stroke-linejoin:miter;stroke-width:0.8;"/>
   </g>
   <g id="patch_11">
    <path d="M 195.708125 20.038594 
L 313.308125 20.038594 
" style="fill:none;stroke:#000000;stroke-linecap:square;stroke-linejoin:miter;stroke-width:0.8;"/>
   </g>
   <g id="text_13">
    <!-- BayesA on DataB -->
    <g transform="translate(215.510703 14.038594)scale(0.09 -0.09)">
     <use xlink:href="#DejaVuSans-66"/>
     <use x="68.603516" xlink:href="#DejaVuSans-97"/>
     <use x="129.882812" xlink:href="#DejaVuSans-121"/>
     <use x="189.0625" xlink:href="#DejaVuSans-101"/>
     <use x="250.585938" xlink:href="#DejaVuSans-115"/>
     <use x="302.685547" xlink:href="#DejaVuSans-65"/>
     <use x="371.09375" xlink:href="#DejaVuSans-32"/>
     <use x="402.880859" xlink:href="#DejaVuSans-111"/>
     <use x="464.0625" xlink:href="#DejaVuSans-110"/>
     <use x="527.441406" xlink:href="#DejaVuSans-32"/>
     <use x="559.228516" xlink:href="#DejaVuSans-68"/>
     <use x="636.230469" xlink:href="#DejaVuSans-97"/>
     <use x="697.509766" xlink:href="#DejaVuSans-116"/>
     <use x="736.71875" xlink:href="#DejaVuSans-97"/>
     <use x="797.998047" xlink:href="#DejaVuSans-66"/>
    </g>
   </g>
  </g>
  <g id="axes_3">
   <g id="patch_12">
    <path d="M 348.588125 87.238594 
L 466.188125 87.238594 
L 466.188125 20.038594 
L 348.588125 20.038594 
z
" style="fill:#ffffff;"/>
   </g>
   <g id="matplotlib.axis_5">
    <g id="xtick_6">
     <g id="line2d_14">
      <g>
       <use style="stroke:#000000;stroke-width:0.8;" x="353.93358" xlink:href="#m792c3beaa6" y="87.238594"/>
      </g>
     </g>
     <g id="text_14">
      <!-- 0.0 -->
      <g transform="translate(345.982017 101.837031)scale(0.1 -0.1)">
       <use xlink:href="#DejaVuSans-48"/>
       <use x="63.623047" xlink:href="#DejaVuSans-46"/>
       <use x="95.410156" xlink:href="#DejaVuSans-48"/>
      </g>
     </g>
    </g>
    <g id="xtick_7">
     <g id="line2d_15">
      <g>
       <use style="stroke:#000000;stroke-width:0.8;" x="420.188035" xlink:href="#m792c3beaa6" y="87.238594"/>
      </g>
     </g>
     <g id="text_15">
      <!-- 0.5 -->
      <g transform="translate(412.236472 101.837031)scale(0.1 -0.1)">
       <use xlink:href="#DejaVuSans-48"/>
       <use x="63.623047" xlink:href="#DejaVuSans-46"/>
       <use x="95.410156" xlink:href="#DejaVuSans-53"/>
      </g>
     </g>
    </g>
   </g>
   <g id="matplotlib.axis_6">
    <g id="ytick_7">
     <g id="line2d_16">
      <g>
       <use style="stroke:#000000;stroke-width:0.8;" x="348.588125" xlink:href="#m190816f427" y="61.151021"/>
      </g>
     </g>
     <g id="text_16">
      <!-- 0.5 -->
      <g transform="translate(325.685 64.95024)scale(0.1 -0.1)">
       <use xlink:href="#DejaVuSans-48"/>
       <use x="63.623047" xlink:href="#DejaVuSans-46"/>
       <use x="95.410156" xlink:href="#DejaVuSans-53"/>
      </g>
     </g>
    </g>
    <g id="ytick_8">
     <g id="line2d_17">
      <g>
       <use style="stroke:#000000;stroke-width:0.8;" x="348.588125" xlink:href="#m190816f427" y="23.016871"/>
      </g>
     </g>
     <g id="text_17">
      <!-- 1.0 -->
      <g transform="translate(325.685 26.81609)scale(0.1 -0.1)">
       <use xlink:href="#DejaVuSans-49"/>
       <use x="63.623047" xlink:href="#DejaVuSans-46"/>
       <use x="95.410156" xlink:href="#DejaVuSans-48"/>
      </g>
     </g>
    </g>
   </g>
   <g id="line2d_18">
    <path clip-path="url(#p729b226a5e)" d="M 460.84267 23.093139 
L 457.659273 23.093139 
L 454.608518 23.169408 
L 451.823045 23.169408 
L 447.711157 23.169408 
L 443.068702 23.169408 
L 438.824173 23.169408 
L 435.640776 23.169408 
L 429.937189 23.321944 
L 425.427376 23.474481 
L 420.917563 23.474481 
L 417.734166 23.779554 
L 414.020203 23.932091 
L 409.643031 24.160895 
L 403.806803 24.237164 
L 399.562273 24.618505 
L 395.715668 24.771042 
L 391.073214 25.30492 
L 387.757175 25.991335 
L 384.308495 26.22014 
L 381.523022 26.906554 
L 378.73755 27.440432 
L 376.21736 28.584457 
L 373.166605 29.652213 
L 371.176981 31.101311 
L 368.922075 32.092799 
L 366.534527 33.770701 
L 365.473395 35.448604 
L 363.35113 37.050238 
L 361.892073 38.956946 
L 360.963582 40.634848 
L 359.637166 42.541556 
L 358.443392 44.829605 
L 357.780185 47.346459 
L 357.116977 49.863313 
L 356.719052 52.380167 
L 356.055844 55.507167 
L 355.65792 58.481631 
L 355.259995 60.388338 
L 355.127354 62.676387 
L 354.596787 64.659363 
L 354.464146 67.862632 
L 354.331504 69.769339 
L 354.198863 71.828584 
L 353.93358 74.345437 
L 353.93358 76.252145 
L 353.93358 78.387657 
L 353.93358 80.904511 
L 353.93358 82.582414 
L 353.93358 84.184048 
" style="fill:none;stroke:#1f77b4;stroke-linecap:square;stroke-width:1.5;"/>
   </g>
   <g id="patch_13">
    <path d="M 348.588125 87.238594 
L 348.588125 20.038594 
" style="fill:none;stroke:#000000;stroke-linecap:square;stroke-linejoin:miter;stroke-width:0.8;"/>
   </g>
   <g id="patch_14">
    <path d="M 466.188125 87.238594 
L 466.188125 20.038594 
" style="fill:none;stroke:#000000;stroke-linecap:square;stroke-linejoin:miter;stroke-width:0.8;"/>
   </g>
   <g id="patch_15">
    <path d="M 348.588125 87.238594 
L 466.188125 87.238594 
" style="fill:none;stroke:#000000;stroke-linecap:square;stroke-linejoin:miter;stroke-width:0.8;"/>
   </g>
   <g id="patch_16">
    <path d="M 348.588125 20.038594 
L 466.188125 20.038594 
" style="fill:none;stroke:#000000;stroke-linecap:square;stroke-linejoin:miter;stroke-width:0.8;"/>
   </g>
   <g id="text_18">
    <!-- BayesA on DataC -->
    <g transform="translate(368.335859 14.038594)scale(0.09 -0.09)">
     <defs>
      <path d="M 64.40625 67.28125 
L 64.40625 56.890625 
Q 59.421875 61.53125 53.78125 63.8125 
Q 48.140625 66.109375 41.796875 66.109375 
Q 29.296875 66.109375 22.65625 58.46875 
Q 16.015625 50.828125 16.015625 36.375 
Q 16.015625 21.96875 22.65625 14.328125 
Q 29.296875 6.6875 41.796875 6.6875 
Q 48.140625 6.6875 53.78125 8.984375 
Q 59.421875 11.28125 64.40625 15.921875 
L 64.40625 5.609375 
Q 59.234375 2.09375 53.4375 0.328125 
Q 47.65625 -1.421875 41.21875 -1.421875 
Q 24.65625 -1.421875 15.125 8.703125 
Q 5.609375 18.84375 5.609375 36.375 
Q 5.609375 53.953125 15.125 64.078125 
Q 24.65625 74.21875 41.21875 74.21875 
Q 47.75 74.21875 53.53125 72.484375 
Q 59.328125 70.75 64.40625 67.28125 
z
" id="DejaVuSans-67"/>
     </defs>
     <use xlink:href="#DejaVuSans-66"/>
     <use x="68.603516" xlink:href="#DejaVuSans-97"/>
     <use x="129.882812" xlink:href="#DejaVuSans-121"/>
     <use x="189.0625" xlink:href="#DejaVuSans-101"/>
     <use x="250.585938" xlink:href="#DejaVuSans-115"/>
     <use x="302.685547" xlink:href="#DejaVuSans-65"/>
     <use x="371.09375" xlink:href="#DejaVuSans-32"/>
     <use x="402.880859" xlink:href="#DejaVuSans-111"/>
     <use x="464.0625" xlink:href="#DejaVuSans-110"/>
     <use x="527.441406" xlink:href="#DejaVuSans-32"/>
     <use x="559.228516" xlink:href="#DejaVuSans-68"/>
     <use x="636.230469" xlink:href="#DejaVuSans-97"/>
     <use x="697.509766" xlink:href="#DejaVuSans-116"/>
     <use x="736.71875" xlink:href="#DejaVuSans-97"/>
     <use x="797.998047" xlink:href="#DejaVuSans-67"/>
    </g>
   </g>
  </g>
  <g id="axes_4">
   <g id="patch_17">
    <path d="M 42.828125 194.758594 
L 160.428125 194.758594 
L 160.428125 127.558594 
L 42.828125 127.558594 
z
" style="fill:#ffffff;"/>
   </g>
   <g id="matplotlib.axis_7">
    <g id="xtick_8">
     <g id="line2d_19">
      <g>
       <use style="stroke:#000000;stroke-width:0.8;" x="48.17358" xlink:href="#m792c3beaa6" y="194.758594"/>
      </g>
     </g>
     <g id="text_19">
      <!-- 0.0 -->
      <g transform="translate(40.222017 209.357031)scale(0.1 -0.1)">
       <use xlink:href="#DejaVuSans-48"/>
       <use x="63.623047" xlink:href="#DejaVuSans-46"/>
       <use x="95.410156" xlink:href="#DejaVuSans-48"/>
      </g>
     </g>
    </g>
    <g id="xtick_9">
     <g id="line2d_20">
      <g>
       <use style="stroke:#000000;stroke-width:0.8;" x="101.628125" xlink:href="#m792c3beaa6" y="194.758594"/>
      </g>
     </g>
     <g id="text_20">
      <!-- 0.5 -->
      <g transform="translate(93.676563 209.357031)scale(0.1 -0.1)">
       <use xlink:href="#DejaVuSans-48"/>
       <use x="63.623047" xlink:href="#DejaVuSans-46"/>
       <use x="95.410156" xlink:href="#DejaVuSans-53"/>
      </g>
     </g>
    </g>
    <g id="xtick_10">
     <g id="line2d_21">
      <g>
       <use style="stroke:#000000;stroke-width:0.8;" x="155.08267" xlink:href="#m792c3beaa6" y="194.758594"/>
      </g>
     </g>
     <g id="text_21">
      <!-- 1.0 -->
      <g transform="translate(147.131108 209.357031)scale(0.1 -0.1)">
       <use xlink:href="#DejaVuSans-49"/>
       <use x="63.623047" xlink:href="#DejaVuSans-46"/>
       <use x="95.410156" xlink:href="#DejaVuSans-48"/>
      </g>
     </g>
    </g>
   </g>
   <g id="matplotlib.axis_8">
    <g id="ytick_9">
     <g id="line2d_22">
      <g>
       <use style="stroke:#000000;stroke-width:0.8;" x="42.828125" xlink:href="#m190816f427" y="191.704048"/>
      </g>
     </g>
     <g id="text_22">
      <!-- 0.0 -->
      <g transform="translate(19.925 195.503267)scale(0.1 -0.1)">
       <use xlink:href="#DejaVuSans-48"/>
       <use x="63.623047" xlink:href="#DejaVuSans-46"/>
       <use x="95.410156" xlink:href="#DejaVuSans-48"/>
      </g>
     </g>
    </g>
    <g id="ytick_10">
     <g id="line2d_23">
      <g>
       <use style="stroke:#000000;stroke-width:0.8;" x="42.828125" xlink:href="#m190816f427" y="161.158594"/>
      </g>
     </g>
     <g id="text_23">
      <!-- 0.5 -->
      <g transform="translate(19.925 164.957812)scale(0.1 -0.1)">
       <use xlink:href="#DejaVuSans-48"/>
       <use x="63.623047" xlink:href="#DejaVuSans-46"/>
       <use x="95.410156" xlink:href="#DejaVuSans-53"/>
      </g>
     </g>
    </g>
    <g id="ytick_11">
     <g id="line2d_24">
      <g>
       <use style="stroke:#000000;stroke-width:0.8;" x="42.828125" xlink:href="#m190816f427" y="130.613139"/>
      </g>
     </g>
     <g id="text_24">
      <!-- 1.0 -->
      <g transform="translate(19.925 134.412358)scale(0.1 -0.1)">
       <use xlink:href="#DejaVuSans-49"/>
       <use x="63.623047" xlink:href="#DejaVuSans-46"/>
       <use x="95.410156" xlink:href="#DejaVuSans-48"/>
      </g>
     </g>
    </g>
   </g>
   <g id="line2d_25">
    <path clip-path="url(#pbf12a2b16e)" d="M 155.08267 130.613139 
L 155.08267 130.613139 
L 155.08267 130.613139 
L 155.08267 130.613139 
L 155.08267 130.613139 
L 155.08267 130.613139 
L 155.08267 130.613139 
L 155.08267 130.613139 
L 155.08267 130.613139 
L 155.08267 130.613139 
L 155.08267 130.613139 
L 155.08267 130.613139 
L 155.08267 130.613139 
L 155.08267 130.613139 
L 155.08267 130.613139 
L 155.08267 130.613139 
L 155.08267 130.613139 
L 154.975654 130.613139 
L 154.868638 130.613139 
L 154.440574 130.613139 
L 153.370413 130.613139 
L 150.373962 130.613139 
L 142.45477 130.613139 
L 126.188322 130.613139 
L 108.102599 130.613139 
L 86.057281 130.613139 
L 68.720672 130.613139 
L 55.878739 130.613139 
L 51.491079 130.613139 
L 49.457773 130.796412 
L 48.387612 130.979685 
L 48.17358 132.384776 
L 48.17358 135.439321 
L 48.17358 141.914957 
L 48.17358 151.567321 
L 48.17358 164.335321 
L 48.17358 175.453866 
L 48.17358 183.945503 
L 48.17358 188.405139 
L 48.17358 190.726594 
L 48.17358 191.459685 
L 48.17358 191.642957 
L 48.17358 191.704048 
L 48.17358 191.704048 
L 48.17358 191.704048 
L 48.17358 191.704048 
L 48.17358 191.704048 
L 48.17358 191.704048 
L 48.17358 191.704048 
L 48.17358 191.704048 
" style="fill:none;stroke:#1f77b4;stroke-linecap:square;stroke-width:1.5;"/>
   </g>
   <g id="patch_18">
    <path d="M 42.828125 194.758594 
L 42.828125 127.558594 
" style="fill:none;stroke:#000000;stroke-linecap:square;stroke-linejoin:miter;stroke-width:0.8;"/>
   </g>
   <g id="patch_19">
    <path d="M 160.428125 194.758594 
L 160.428125 127.558594 
" style="fill:none;stroke:#000000;stroke-linecap:square;stroke-linejoin:miter;stroke-width:0.8;"/>
   </g>
   <g id="patch_20">
    <path d="M 42.828125 194.758594 
L 160.428125 194.758594 
" style="fill:none;stroke:#000000;stroke-linecap:square;stroke-linejoin:miter;stroke-width:0.8;"/>
   </g>
   <g id="patch_21">
    <path d="M 42.828125 127.558594 
L 160.428125 127.558594 
" style="fill:none;stroke:#000000;stroke-linecap:square;stroke-linejoin:miter;stroke-width:0.8;"/>
   </g>
   <g id="text_25">
    <!-- BayesB on DataA -->
    <g transform="translate(62.630703 121.558594)scale(0.09 -0.09)">
     <use xlink:href="#DejaVuSans-66"/>
     <use x="68.603516" xlink:href="#DejaVuSans-97"/>
     <use x="129.882812" xlink:href="#DejaVuSans-121"/>
     <use x="189.0625" xlink:href="#DejaVuSans-101"/>
     <use x="250.585938" xlink:href="#DejaVuSans-115"/>
     <use x="302.685547" xlink:href="#DejaVuSans-66"/>
     <use x="371.289062" xlink:href="#DejaVuSans-32"/>
     <use x="403.076172" xlink:href="#DejaVuSans-111"/>
     <use x="464.257812" xlink:href="#DejaVuSans-110"/>
     <use x="527.636719" xlink:href="#DejaVuSans-32"/>
     <use x="559.423828" xlink:href="#DejaVuSans-68"/>
     <use x="636.425781" xlink:href="#DejaVuSans-97"/>
     <use x="697.705078" xlink:href="#DejaVuSans-116"/>
     <use x="736.914062" xlink:href="#DejaVuSans-97"/>
     <use x="798.193359" xlink:href="#DejaVuSans-65"/>
    </g>
   </g>
  </g>
  <g id="axes_5">
   <g id="patch_22">
    <path d="M 195.708125 194.758594 
L 313.308125 194.758594 
L 313.308125 127.558594 
L 195.708125 127.558594 
z
" style="fill:#ffffff;"/>
   </g>
   <g id="matplotlib.axis_9">
    <g id="xtick_11">
     <g id="line2d_26">
      <g>
       <use style="stroke:#000000;stroke-width:0.8;" x="201.05358" xlink:href="#m792c3beaa6" y="194.758594"/>
      </g>
     </g>
     <g id="text_26">
      <!-- 0.0 -->
      <g transform="translate(193.102017 209.357031)scale(0.1 -0.1)">
       <use xlink:href="#DejaVuSans-48"/>
       <use x="63.623047" xlink:href="#DejaVuSans-46"/>
       <use x="95.410156" xlink:href="#DejaVuSans-48"/>
      </g>
     </g>
    </g>
    <g id="xtick_12">
     <g id="line2d_27">
      <g>
       <use style="stroke:#000000;stroke-width:0.8;" x="254.508125" xlink:href="#m792c3beaa6" y="194.758594"/>
      </g>
     </g>
     <g id="text_27">
      <!-- 0.5 -->
      <g transform="translate(246.556562 209.357031)scale(0.1 -0.1)">
       <use xlink:href="#DejaVuSans-48"/>
       <use x="63.623047" xlink:href="#DejaVuSans-46"/>
       <use x="95.410156" xlink:href="#DejaVuSans-53"/>
      </g>
     </g>
    </g>
    <g id="xtick_13">
     <g id="line2d_28">
      <g>
       <use style="stroke:#000000;stroke-width:0.8;" x="307.96267" xlink:href="#m792c3beaa6" y="194.758594"/>
      </g>
     </g>
     <g id="text_28">
      <!-- 1.0 -->
      <g transform="translate(300.011108 209.357031)scale(0.1 -0.1)">
       <use xlink:href="#DejaVuSans-49"/>
       <use x="63.623047" xlink:href="#DejaVuSans-46"/>
       <use x="95.410156" xlink:href="#DejaVuSans-48"/>
      </g>
     </g>
    </g>
   </g>
   <g id="matplotlib.axis_10">
    <g id="ytick_12">
     <g id="line2d_29">
      <g>
       <use style="stroke:#000000;stroke-width:0.8;" x="195.708125" xlink:href="#m190816f427" y="191.704048"/>
      </g>
     </g>
     <g id="text_29">
      <!-- 0.0 -->
      <g transform="translate(172.805 195.503267)scale(0.1 -0.1)">
       <use xlink:href="#DejaVuSans-48"/>
       <use x="63.623047" xlink:href="#DejaVuSans-46"/>
       <use x="95.410156" xlink:href="#DejaVuSans-48"/>
      </g>
     </g>
    </g>
    <g id="ytick_13">
     <g id="line2d_30">
      <g>
       <use style="stroke:#000000;stroke-width:0.8;" x="195.708125" xlink:href="#m190816f427" y="161.158594"/>
      </g>
     </g>
     <g id="text_30">
      <!-- 0.5 -->
      <g transform="translate(172.805 164.957812)scale(0.1 -0.1)">
       <use xlink:href="#DejaVuSans-48"/>
       <use x="63.623047" xlink:href="#DejaVuSans-46"/>
       <use x="95.410156" xlink:href="#DejaVuSans-53"/>
      </g>
     </g>
    </g>
    <g id="ytick_14">
     <g id="line2d_31">
      <g>
       <use style="stroke:#000000;stroke-width:0.8;" x="195.708125" xlink:href="#m190816f427" y="130.613139"/>
      </g>
     </g>
     <g id="text_31">
      <!-- 1.0 -->
      <g transform="translate(172.805 134.412358)scale(0.1 -0.1)">
       <use xlink:href="#DejaVuSans-49"/>
       <use x="63.623047" xlink:href="#DejaVuSans-46"/>
       <use x="95.410156" xlink:href="#DejaVuSans-48"/>
      </g>
     </g>
    </g>
   </g>
   <g id="line2d_32">
    <path clip-path="url(#p980dedc331)" d="M 307.96267 130.613139 
L 307.96267 130.613139 
L 307.96267 130.613139 
L 307.96267 130.613139 
L 307.96267 130.613139 
L 307.96267 130.613139 
L 307.96267 130.613139 
L 307.96267 130.613139 
L 307.96267 130.613139 
L 307.96267 130.613139 
L 307.96267 130.613139 
L 307.96267 130.613139 
L 307.96267 130.613139 
L 307.96267 130.613139 
L 307.96267 130.613139 
L 307.96267 130.613139 
L 307.96267 130.613139 
L 307.96267 130.613139 
L 307.96267 130.613139 
L 307.96267 130.613139 
L 307.96267 130.613139 
L 307.96267 130.613139 
L 307.96267 130.613139 
L 307.96267 130.613139 
L 307.96267 130.613139 
L 201.05358 191.704048 
L 201.05358 191.704048 
L 201.05358 191.704048 
L 201.05358 191.704048 
L 201.05358 191.704048 
L 201.05358 191.704048 
L 201.05358 191.704048 
L 201.05358 191.704048 
L 201.05358 191.704048 
L 201.05358 191.704048 
L 201.05358 191.704048 
L 201.05358 191.704048 
L 201.05358 191.704048 
L 201.05358 191.704048 
L 201.05358 191.704048 
L 201.05358 191.704048 
L 201.05358 191.704048 
L 201.05358 191.704048 
L 201.05358 191.704048 
L 201.05358 191.704048 
L 201.05358 191.704048 
L 201.05358 191.704048 
L 201.05358 191.704048 
L 201.05358 191.704048 
L 201.05358 191.704048 
" style="fill:none;stroke:#1f77b4;stroke-linecap:square;stroke-width:1.5;"/>
   </g>
   <g id="patch_23">
    <path d="M 195.708125 194.758594 
L 195.708125 127.558594 
" style="fill:none;stroke:#000000;stroke-linecap:square;stroke-linejoin:miter;stroke-width:0.8;"/>
   </g>
   <g id="patch_24">
    <path d="M 313.308125 194.758594 
L 313.308125 127.558594 
" style="fill:none;stroke:#000000;stroke-linecap:square;stroke-linejoin:miter;stroke-width:0.8;"/>
   </g>
   <g id="patch_25">
    <path d="M 195.708125 194.758594 
L 313.308125 194.758594 
" style="fill:none;stroke:#000000;stroke-linecap:square;stroke-linejoin:miter;stroke-width:0.8;"/>
   </g>
   <g id="patch_26">
    <path d="M 195.708125 127.558594 
L 313.308125 127.558594 
" style="fill:none;stroke:#000000;stroke-linecap:square;stroke-linejoin:miter;stroke-width:0.8;"/>
   </g>
   <g id="text_32">
    <!-- BayesB on DataB -->
    <g transform="translate(215.501562 121.558594)scale(0.09 -0.09)">
     <use xlink:href="#DejaVuSans-66"/>
     <use x="68.603516" xlink:href="#DejaVuSans-97"/>
     <use x="129.882812" xlink:href="#DejaVuSans-121"/>
     <use x="189.0625" xlink:href="#DejaVuSans-101"/>
     <use x="250.585938" xlink:href="#DejaVuSans-115"/>
     <use x="302.685547" xlink:href="#DejaVuSans-66"/>
     <use x="371.289062" xlink:href="#DejaVuSans-32"/>
     <use x="403.076172" xlink:href="#DejaVuSans-111"/>
     <use x="464.257812" xlink:href="#DejaVuSans-110"/>
     <use x="527.636719" xlink:href="#DejaVuSans-32"/>
     <use x="559.423828" xlink:href="#DejaVuSans-68"/>
     <use x="636.425781" xlink:href="#DejaVuSans-97"/>
     <use x="697.705078" xlink:href="#DejaVuSans-116"/>
     <use x="736.914062" xlink:href="#DejaVuSans-97"/>
     <use x="798.193359" xlink:href="#DejaVuSans-66"/>
    </g>
   </g>
  </g>
  <g id="axes_6">
   <g id="patch_27">
    <path d="M 348.588125 194.758594 
L 466.188125 194.758594 
L 466.188125 127.558594 
L 348.588125 127.558594 
z
" style="fill:#ffffff;"/>
   </g>
   <g id="matplotlib.axis_11">
    <g id="xtick_14">
     <g id="line2d_33">
      <g>
       <use style="stroke:#000000;stroke-width:0.8;" x="353.93358" xlink:href="#m792c3beaa6" y="194.758594"/>
      </g>
     </g>
     <g id="text_33">
      <!-- 0.0 -->
      <g transform="translate(345.982017 209.357031)scale(0.1 -0.1)">
       <use xlink:href="#DejaVuSans-48"/>
       <use x="63.623047" xlink:href="#DejaVuSans-46"/>
       <use x="95.410156" xlink:href="#DejaVuSans-48"/>
      </g>
     </g>
    </g>
    <g id="xtick_15">
     <g id="line2d_34">
      <g>
       <use style="stroke:#000000;stroke-width:0.8;" x="407.441687" xlink:href="#m792c3beaa6" y="194.758594"/>
      </g>
     </g>
     <g id="text_34">
      <!-- 0.5 -->
      <g transform="translate(399.490124 209.357031)scale(0.1 -0.1)">
       <use xlink:href="#DejaVuSans-48"/>
       <use x="63.623047" xlink:href="#DejaVuSans-46"/>
       <use x="95.410156" xlink:href="#DejaVuSans-53"/>
      </g>
     </g>
    </g>
    <g id="xtick_16">
     <g id="line2d_35">
      <g>
       <use style="stroke:#000000;stroke-width:0.8;" x="460.949794" xlink:href="#m792c3beaa6" y="194.758594"/>
      </g>
     </g>
     <g id="text_35">
      <!-- 1.0 -->
      <g transform="translate(452.998231 209.357031)scale(0.1 -0.1)">
       <use xlink:href="#DejaVuSans-49"/>
       <use x="63.623047" xlink:href="#DejaVuSans-46"/>
       <use x="95.410156" xlink:href="#DejaVuSans-48"/>
      </g>
     </g>
    </g>
   </g>
   <g id="matplotlib.axis_12">
    <g id="ytick_15">
     <g id="line2d_36">
      <g>
       <use style="stroke:#000000;stroke-width:0.8;" x="348.588125" xlink:href="#m190816f427" y="191.704048"/>
      </g>
     </g>
     <g id="text_36">
      <!-- 0.0 -->
      <g transform="translate(325.685 195.503267)scale(0.1 -0.1)">
       <use xlink:href="#DejaVuSans-48"/>
       <use x="63.623047" xlink:href="#DejaVuSans-46"/>
       <use x="95.410156" xlink:href="#DejaVuSans-48"/>
      </g>
     </g>
    </g>
    <g id="ytick_16">
     <g id="line2d_37">
      <g>
       <use style="stroke:#000000;stroke-width:0.8;" x="348.588125" xlink:href="#m190816f427" y="161.158594"/>
      </g>
     </g>
     <g id="text_37">
      <!-- 0.5 -->
      <g transform="translate(325.685 164.957812)scale(0.1 -0.1)">
       <use xlink:href="#DejaVuSans-48"/>
       <use x="63.623047" xlink:href="#DejaVuSans-46"/>
       <use x="95.410156" xlink:href="#DejaVuSans-53"/>
      </g>
     </g>
    </g>
    <g id="ytick_17">
     <g id="line2d_38">
      <g>
       <use style="stroke:#000000;stroke-width:0.8;" x="348.588125" xlink:href="#m190816f427" y="130.613139"/>
      </g>
     </g>
     <g id="text_38">
      <!-- 1.0 -->
      <g transform="translate(325.685 134.412358)scale(0.1 -0.1)">
       <use xlink:href="#DejaVuSans-49"/>
       <use x="63.623047" xlink:href="#DejaVuSans-46"/>
       <use x="95.410156" xlink:href="#DejaVuSans-48"/>
      </g>
     </g>
    </g>
   </g>
   <g id="line2d_39">
    <path clip-path="url(#p3eea741fd7)" d="M 460.84267 130.613139 
L 460.84267 130.613139 
L 460.84267 130.613139 
L 460.735547 130.613139 
L 460.5213 130.613139 
L 460.307054 130.613139 
L 459.87856 130.613139 
L 459.55719 130.613139 
L 458.057464 130.613139 
L 456.771984 130.613139 
L 454.41527 130.613139 
L 451.415817 130.613139 
L 448.30924 130.613139 
L 444.345676 130.613139 
L 439.418003 130.67423 
L 434.061836 130.735321 
L 426.563202 130.735321 
L 419.600185 130.796412 
L 409.102098 130.979685 
L 403.424562 131.34623 
L 393.997708 131.590594 
L 386.391951 132.201503 
L 379.000441 133.117866 
L 373.85852 134.156412 
L 369.03797 136.355685 
L 364.431667 138.554957 
L 361.432213 142.037139 
L 358.968376 145.152776 
L 357.46865 149.429139 
L 356.18317 154.133139 
L 355.111936 159.448048 
L 354.683443 162.991321 
L 354.25495 167.878594 
L 353.93358 172.032776 
L 353.93358 175.820412 
L 353.93358 179.302594 
L 353.93358 181.868412 
L 353.93358 184.250957 
L 353.93358 186.572412 
L 353.93358 188.282957 
L 353.93358 189.688048 
L 353.93358 190.054594 
L 353.93358 190.726594 
L 353.93358 191.093139 
L 353.93358 191.215321 
L 353.93358 191.520776 
L 353.93358 191.520776 
L 353.93358 191.520776 
L 353.93358 191.581866 
L 353.93358 191.704048 
" style="fill:none;stroke:#1f77b4;stroke-linecap:square;stroke-width:1.5;"/>
   </g>
   <g id="patch_28">
    <path d="M 348.588125 194.758594 
L 348.588125 127.558594 
" style="fill:none;stroke:#000000;stroke-linecap:square;stroke-linejoin:miter;stroke-width:0.8;"/>
   </g>
   <g id="patch_29">
    <path d="M 466.188125 194.758594 
L 466.188125 127.558594 
" style="fill:none;stroke:#000000;stroke-linecap:square;stroke-linejoin:miter;stroke-width:0.8;"/>
   </g>
   <g id="patch_30">
    <path d="M 348.588125 194.758594 
L 466.188125 194.758594 
" style="fill:none;stroke:#000000;stroke-linecap:square;stroke-linejoin:miter;stroke-width:0.8;"/>
   </g>
   <g id="patch_31">
    <path d="M 348.588125 127.558594 
L 466.188125 127.558594 
" style="fill:none;stroke:#000000;stroke-linecap:square;stroke-linejoin:miter;stroke-width:0.8;"/>
   </g>
   <g id="text_39">
    <!-- BayesB on DataC -->
    <g transform="translate(368.326719 121.558594)scale(0.09 -0.09)">
     <use xlink:href="#DejaVuSans-66"/>
     <use x="68.603516" xlink:href="#DejaVuSans-97"/>
     <use x="129.882812" xlink:href="#DejaVuSans-121"/>
     <use x="189.0625" xlink:href="#DejaVuSans-101"/>
     <use x="250.585938" xlink:href="#DejaVuSans-115"/>
     <use x="302.685547" xlink:href="#DejaVuSans-66"/>
     <use x="371.289062" xlink:href="#DejaVuSans-32"/>
     <use x="403.076172" xlink:href="#DejaVuSans-111"/>
     <use x="464.257812" xlink:href="#DejaVuSans-110"/>
     <use x="527.636719" xlink:href="#DejaVuSans-32"/>
     <use x="559.423828" xlink:href="#DejaVuSans-68"/>
     <use x="636.425781" xlink:href="#DejaVuSans-97"/>
     <use x="697.705078" xlink:href="#DejaVuSans-116"/>
     <use x="736.914062" xlink:href="#DejaVuSans-97"/>
     <use x="798.193359" xlink:href="#DejaVuSans-67"/>
    </g>
   </g>
  </g>
  <g id="axes_7">
   <g id="patch_32">
    <path d="M 42.828125 302.278594 
L 160.428125 302.278594 
L 160.428125 235.078594 
L 42.828125 235.078594 
z
" style="fill:#ffffff;"/>
   </g>
   <g id="matplotlib.axis_13">
    <g id="xtick_17">
     <g id="line2d_40">
      <g>
       <use style="stroke:#000000;stroke-width:0.8;" x="47.407598" xlink:href="#m792c3beaa6" y="302.278594"/>
      </g>
     </g>
     <g id="text_40">
      <!-- 0.0 -->
      <g transform="translate(39.456036 316.877031)scale(0.1 -0.1)">
       <use xlink:href="#DejaVuSans-48"/>
       <use x="63.623047" xlink:href="#DejaVuSans-46"/>
       <use x="95.410156" xlink:href="#DejaVuSans-48"/>
      </g>
     </g>
    </g>
    <g id="xtick_18">
     <g id="line2d_41">
      <g>
       <use style="stroke:#000000;stroke-width:0.8;" x="102.065829" xlink:href="#m792c3beaa6" y="302.278594"/>
      </g>
     </g>
     <g id="text_41">
      <!-- 0.5 -->
      <g transform="translate(94.114266 316.877031)scale(0.1 -0.1)">
       <use xlink:href="#DejaVuSans-48"/>
       <use x="63.623047" xlink:href="#DejaVuSans-46"/>
       <use x="95.410156" xlink:href="#DejaVuSans-53"/>
      </g>
     </g>
    </g>
    <g id="xtick_19">
     <g id="line2d_42">
      <g>
       <use style="stroke:#000000;stroke-width:0.8;" x="156.724059" xlink:href="#m792c3beaa6" y="302.278594"/>
      </g>
     </g>
     <g id="text_42">
      <!-- 1.0 -->
      <g transform="translate(148.772496 316.877031)scale(0.1 -0.1)">
       <use xlink:href="#DejaVuSans-49"/>
       <use x="63.623047" xlink:href="#DejaVuSans-46"/>
       <use x="95.410156" xlink:href="#DejaVuSans-48"/>
      </g>
     </g>
    </g>
   </g>
   <g id="matplotlib.axis_14">
    <g id="ytick_18">
     <g id="line2d_43">
      <g>
       <use style="stroke:#000000;stroke-width:0.8;" x="42.828125" xlink:href="#m190816f427" y="278.860412"/>
      </g>
     </g>
     <g id="text_43">
      <!-- 0.998 -->
      <g transform="translate(7.2 282.659631)scale(0.1 -0.1)">
       <defs>
        <path d="M 10.984375 1.515625 
L 10.984375 10.5 
Q 14.703125 8.734375 18.5 7.8125 
Q 22.3125 6.890625 25.984375 6.890625 
Q 35.75 6.890625 40.890625 13.453125 
Q 46.046875 20.015625 46.78125 33.40625 
Q 43.953125 29.203125 39.59375 26.953125 
Q 35.25 24.703125 29.984375 24.703125 
Q 19.046875 24.703125 12.671875 31.3125 
Q 6.296875 37.9375 6.296875 49.421875 
Q 6.296875 60.640625 12.9375 67.421875 
Q 19.578125 74.21875 30.609375 74.21875 
Q 43.265625 74.21875 49.921875 64.515625 
Q 56.59375 54.828125 56.59375 36.375 
Q 56.59375 19.140625 48.40625 8.859375 
Q 40.234375 -1.421875 26.421875 -1.421875 
Q 22.703125 -1.421875 18.890625 -0.6875 
Q 15.09375 0.046875 10.984375 1.515625 
z
M 30.609375 32.421875 
Q 37.25 32.421875 41.125 36.953125 
Q 45.015625 41.5 45.015625 49.421875 
Q 45.015625 57.28125 41.125 61.84375 
Q 37.25 66.40625 30.609375 66.40625 
Q 23.96875 66.40625 20.09375 61.84375 
Q 16.21875 57.28125 16.21875 49.421875 
Q 16.21875 41.5 20.09375 36.953125 
Q 23.96875 32.421875 30.609375 32.421875 
z
" id="DejaVuSans-57"/>
        <path d="M 31.78125 34.625 
Q 24.75 34.625 20.71875 30.859375 
Q 16.703125 27.09375 16.703125 20.515625 
Q 16.703125 13.921875 20.71875 10.15625 
Q 24.75 6.390625 31.78125 6.390625 
Q 38.8125 6.390625 42.859375 10.171875 
Q 46.921875 13.96875 46.921875 20.515625 
Q 46.921875 27.09375 42.890625 30.859375 
Q 38.875 34.625 31.78125 34.625 
z
M 21.921875 38.8125 
Q 15.578125 40.375 12.03125 44.71875 
Q 8.5 49.078125 8.5 55.328125 
Q 8.5 64.0625 14.71875 69.140625 
Q 20.953125 74.21875 31.78125 74.21875 
Q 42.671875 74.21875 48.875 69.140625 
Q 55.078125 64.0625 55.078125 55.328125 
Q 55.078125 49.078125 51.53125 44.71875 
Q 48 40.375 41.703125 38.8125 
Q 48.828125 37.15625 52.796875 32.3125 
Q 56.78125 27.484375 56.78125 20.515625 
Q 56.78125 9.90625 50.3125 4.234375 
Q 43.84375 -1.421875 31.78125 -1.421875 
Q 19.734375 -1.421875 13.25 4.234375 
Q 6.78125 9.90625 6.78125 20.515625 
Q 6.78125 27.484375 10.78125 32.3125 
Q 14.796875 37.15625 21.921875 38.8125 
z
M 18.3125 54.390625 
Q 18.3125 48.734375 21.84375 45.5625 
Q 25.390625 42.390625 31.78125 42.390625 
Q 38.140625 42.390625 41.71875 45.5625 
Q 45.3125 48.734375 45.3125 54.390625 
Q 45.3125 60.0625 41.71875 63.234375 
Q 38.140625 66.40625 31.78125 66.40625 
Q 25.390625 66.40625 21.84375 63.234375 
Q 18.3125 60.0625 18.3125 54.390625 
z
" id="DejaVuSans-56"/>
       </defs>
       <use xlink:href="#DejaVuSans-48"/>
       <use x="63.623047" xlink:href="#DejaVuSans-46"/>
       <use x="95.410156" xlink:href="#DejaVuSans-57"/>
       <use x="159.033203" xlink:href="#DejaVuSans-57"/>
       <use x="222.65625" xlink:href="#DejaVuSans-56"/>
      </g>
     </g>
    </g>
    <g id="ytick_19">
     <g id="line2d_44">
      <g>
       <use style="stroke:#000000;stroke-width:0.8;" x="42.828125" xlink:href="#m190816f427" y="238.133139"/>
      </g>
     </g>
     <g id="text_44">
      <!-- 1.000 -->
      <g transform="translate(7.2 241.932358)scale(0.1 -0.1)">
       <use xlink:href="#DejaVuSans-49"/>
       <use x="63.623047" xlink:href="#DejaVuSans-46"/>
       <use x="95.410156" xlink:href="#DejaVuSans-48"/>
       <use x="159.033203" xlink:href="#DejaVuSans-48"/>
       <use x="222.65625" xlink:href="#DejaVuSans-48"/>
      </g>
     </g>
    </g>
   </g>
   <g id="line2d_45">
    <path clip-path="url(#p83e2a839e8)" d="M 155.08267 238.133139 
L 154.754393 238.133139 
L 154.754393 238.133139 
L 154.316689 238.133139 
L 154.316689 238.133139 
L 154.097837 238.133139 
L 154.097837 238.133139 
L 153.660134 238.133139 
L 153.550708 238.133139 
L 153.113005 238.133139 
L 152.456449 238.133139 
L 151.90932 238.133139 
L 151.471616 238.133139 
L 151.252764 238.133139 
L 150.596209 238.133139 
L 150.267931 238.133139 
L 149.283098 238.133139 
L 148.735969 238.133139 
L 147.751136 238.133139 
L 146.438025 238.133139 
L 145.672044 238.133139 
L 145.015489 238.133139 
L 143.702378 238.133139 
L 142.279842 238.133139 
L 141.513861 238.133139 
L 139.325343 238.133139 
L 137.465103 238.133139 
L 136.370844 238.133139 
L 134.838881 238.133139 
L 133.525771 238.133139 
L 132.540938 238.133139 
L 131.227827 238.133139 
L 128.929884 238.133139 
L 127.069644 238.133139 
L 125.428255 238.133139 
L 123.020886 238.133139 
L 120.285239 238.133139 
L 118.972128 238.133139 
L 117.221314 238.133139 
L 115.908203 238.133139 
L 113.938537 238.133139 
L 112.734852 238.133139 
L 111.421742 238.133139 
L 109.780354 238.133139 
L 107.920113 238.133139 
L 106.278725 238.133139 
L 103.980782 238.133139 
L 103.105374 238.133139 
L 100.369727 238.133139 
L 97.415228 238.133139 
L 95.445562 238.133139 
L 93.038193 238.133139 
L 90.19312 238.133139 
L 88.770583 238.133139 
L 86.800917 238.133139 
L 84.940677 238.133139 
L 83.408715 238.133139 
L 80.89192 238.133139 
L 78.922254 238.133139 
L 77.280865 238.133139 
L 75.858329 238.133139 
L 73.888663 238.133139 
L 72.575552 238.133139 
L 71.371867 238.133139 
L 69.730479 238.133139 
L 68.745646 238.133139 
L 66.447703 238.133139 
L 64.696888 238.133139 
L 63.383778 238.133139 
L 62.617797 238.133139 
L 61.961241 238.133139 
L 61.085834 238.133139 
L 59.553872 238.133139 
L 58.240761 238.133139 
L 56.489947 238.133139 
L 55.942817 238.133139 
L 55.505114 238.133139 
L 54.410855 238.133139 
L 53.7543 238.133139 
L 53.20717 238.133139 
L 52.878893 238.133139 
L 52.550615 238.133139 
L 52.331763 238.133139 
L 52.003486 238.133139 
L 51.675208 238.133139 
L 51.128078 238.133139 
L 51.128078 238.133139 
L 50.799801 238.133139 
L 50.471523 238.133139 
L 50.252671 238.133139 
L 49.924394 238.133139 
L 49.705542 238.133139 
L 49.267838 238.133139 
L 48.939561 258.496776 
L 48.939561 258.496776 
L 48.939561 258.496776 
L 48.830135 258.496776 
L 48.720709 299.224048 
L 48.611283 299.224048 
L 48.17358 299.224048 
" style="fill:none;stroke:#1f77b4;stroke-linecap:square;stroke-width:1.5;"/>
   </g>
   <g id="patch_33">
    <path d="M 42.828125 302.278594 
L 42.828125 235.078594 
" style="fill:none;stroke:#000000;stroke-linecap:square;stroke-linejoin:miter;stroke-width:0.8;"/>
   </g>
   <g id="patch_34">
    <path d="M 160.428125 302.278594 
L 160.428125 235.078594 
" style="fill:none;stroke:#000000;stroke-linecap:square;stroke-linejoin:miter;stroke-width:0.8;"/>
   </g>
   <g id="patch_35">
    <path d="M 42.828125 302.278594 
L 160.428125 302.278594 
" style="fill:none;stroke:#000000;stroke-linecap:square;stroke-linejoin:miter;stroke-width:0.8;"/>
   </g>
   <g id="patch_36">
    <path d="M 42.828125 235.078594 
L 160.428125 235.078594 
" style="fill:none;stroke:#000000;stroke-linecap:square;stroke-linejoin:miter;stroke-width:0.8;"/>
   </g>
   <g id="text_45">
    <!-- BayesC on DataA -->
    <g transform="translate(62.575859 229.078594)scale(0.09 -0.09)">
     <use xlink:href="#DejaVuSans-66"/>
     <use x="68.603516" xlink:href="#DejaVuSans-97"/>
     <use x="129.882812" xlink:href="#DejaVuSans-121"/>
     <use x="189.0625" xlink:href="#DejaVuSans-101"/>
     <use x="250.585938" xlink:href="#DejaVuSans-115"/>
     <use x="302.685547" xlink:href="#DejaVuSans-67"/>
     <use x="372.509766" xlink:href="#DejaVuSans-32"/>
     <use x="404.296875" xlink:href="#DejaVuSans-111"/>
     <use x="465.478516" xlink:href="#DejaVuSans-110"/>
     <use x="528.857422" xlink:href="#DejaVuSans-32"/>
     <use x="560.644531" xlink:href="#DejaVuSans-68"/>
     <use x="637.646484" xlink:href="#DejaVuSans-97"/>
     <use x="698.925781" xlink:href="#DejaVuSans-116"/>
     <use x="738.134766" xlink:href="#DejaVuSans-97"/>
     <use x="799.414062" xlink:href="#DejaVuSans-65"/>
    </g>
   </g>
  </g>
  <g id="axes_8">
   <g id="patch_37">
    <path d="M 195.708125 302.278594 
L 313.308125 302.278594 
L 313.308125 235.078594 
L 195.708125 235.078594 
z
" style="fill:#ffffff;"/>
   </g>
   <g id="matplotlib.axis_15">
    <g id="xtick_20">
     <g id="line2d_46">
      <g>
       <use style="stroke:#000000;stroke-width:0.8;" x="201.05358" xlink:href="#m792c3beaa6" y="302.278594"/>
      </g>
     </g>
     <g id="text_46">
      <!-- 0.0 -->
      <g transform="translate(193.102017 316.877031)scale(0.1 -0.1)">
       <use xlink:href="#DejaVuSans-48"/>
       <use x="63.623047" xlink:href="#DejaVuSans-46"/>
       <use x="95.410156" xlink:href="#DejaVuSans-48"/>
      </g>
     </g>
    </g>
    <g id="xtick_21">
     <g id="line2d_47">
      <g>
       <use style="stroke:#000000;stroke-width:0.8;" x="263.694155" xlink:href="#m792c3beaa6" y="302.278594"/>
      </g>
     </g>
     <g id="text_47">
      <!-- 0.2 -->
      <g transform="translate(255.742593 316.877031)scale(0.1 -0.1)">
       <defs>
        <path d="M 19.1875 8.296875 
L 53.609375 8.296875 
L 53.609375 0 
L 7.328125 0 
L 7.328125 8.296875 
Q 12.9375 14.109375 22.625 23.890625 
Q 32.328125 33.6875 34.8125 36.53125 
Q 39.546875 41.84375 41.421875 45.53125 
Q 43.3125 49.21875 43.3125 52.78125 
Q 43.3125 58.59375 39.234375 62.25 
Q 35.15625 65.921875 28.609375 65.921875 
Q 23.96875 65.921875 18.8125 64.3125 
Q 13.671875 62.703125 7.8125 59.421875 
L 7.8125 69.390625 
Q 13.765625 71.78125 18.9375 73 
Q 24.125 74.21875 28.421875 74.21875 
Q 39.75 74.21875 46.484375 68.546875 
Q 53.21875 62.890625 53.21875 53.421875 
Q 53.21875 48.921875 51.53125 44.890625 
Q 49.859375 40.875 45.40625 35.40625 
Q 44.1875 33.984375 37.640625 27.21875 
Q 31.109375 20.453125 19.1875 8.296875 
z
" id="DejaVuSans-50"/>
       </defs>
       <use xlink:href="#DejaVuSans-48"/>
       <use x="63.623047" xlink:href="#DejaVuSans-46"/>
       <use x="95.410156" xlink:href="#DejaVuSans-50"/>
      </g>
     </g>
    </g>
   </g>
   <g id="matplotlib.axis_16">
    <g id="ytick_20">
     <g id="line2d_48">
      <g>
       <use style="stroke:#000000;stroke-width:0.8;" x="195.708125" xlink:href="#m190816f427" y="301.571259"/>
      </g>
     </g>
     <g id="text_48">
      <!-- 0.0 -->
      <g transform="translate(172.805 305.370477)scale(0.1 -0.1)">
       <use xlink:href="#DejaVuSans-48"/>
       <use x="63.623047" xlink:href="#DejaVuSans-46"/>
       <use x="95.410156" xlink:href="#DejaVuSans-48"/>
      </g>
     </g>
    </g>
    <g id="ytick_21">
     <g id="line2d_49">
      <g>
       <use style="stroke:#000000;stroke-width:0.8;" x="195.708125" xlink:href="#m190816f427" y="269.852199"/>
      </g>
     </g>
     <g id="text_49">
      <!-- 0.5 -->
      <g transform="translate(172.805 273.651418)scale(0.1 -0.1)">
       <use xlink:href="#DejaVuSans-48"/>
       <use x="63.623047" xlink:href="#DejaVuSans-46"/>
       <use x="95.410156" xlink:href="#DejaVuSans-53"/>
      </g>
     </g>
    </g>
    <g id="ytick_22">
     <g id="line2d_50">
      <g>
       <use style="stroke:#000000;stroke-width:0.8;" x="195.708125" xlink:href="#m190816f427" y="238.133139"/>
      </g>
     </g>
     <g id="text_50">
      <!-- 1.0 -->
      <g transform="translate(172.805 241.932358)scale(0.1 -0.1)">
       <use xlink:href="#DejaVuSans-49"/>
       <use x="63.623047" xlink:href="#DejaVuSans-46"/>
       <use x="95.410156" xlink:href="#DejaVuSans-48"/>
      </g>
     </g>
    </g>
   </g>
   <g id="line2d_51">
    <path clip-path="url(#p7ab051cabe)" d="M 307.96267 238.133139 
L 305.454539 238.133139 
L 302.946408 238.133139 
L 302.632892 238.133139 
L 301.06531 238.133139 
L 298.557179 238.133139 
L 295.735531 238.133139 
L 293.540916 238.133139 
L 291.973334 238.133139 
L 289.465203 238.133139 
L 287.897621 238.133139 
L 286.330039 238.133139 
L 284.762457 238.133139 
L 281.00026 238.133139 
L 278.492129 238.133139 
L 275.983998 238.133139 
L 273.789383 238.133139 
L 271.281252 238.133139 
L 266.578506 238.133139 
L 261.87576 238.133139 
L 257.800047 238.260015 
L 255.918949 238.45033 
L 253.097301 238.640644 
L 248.708072 239.021273 
L 242.437744 239.528778 
L 237.421481 240.543788 
L 232.091703 242.510369 
L 226.761924 246.760723 
L 211.399621 257.418328 
L 204.188744 267.187798 
L 202.621162 273.150981 
L 202.307645 277.401335 
L 201.367096 280.636679 
L 201.367096 283.681709 
L 201.367096 286.726739 
L 201.05358 288.756759 
L 201.05358 290.533026 
L 201.05358 291.611474 
L 201.05358 292.75336 
L 201.05358 293.958684 
L 201.05358 294.846818 
L 201.05358 295.79839 
L 201.05358 296.432771 
L 201.05358 296.8134 
L 201.05358 297.82841 
L 201.05358 298.209038 
L 201.05358 298.462791 
L 201.05358 298.589667 
L 201.05358 298.84342 
L 201.05358 299.224048 
" style="fill:none;stroke:#1f77b4;stroke-linecap:square;stroke-width:1.5;"/>
   </g>
   <g id="patch_38">
    <path d="M 195.708125 302.278594 
L 195.708125 235.078594 
" style="fill:none;stroke:#000000;stroke-linecap:square;stroke-linejoin:miter;stroke-width:0.8;"/>
   </g>
   <g id="patch_39">
    <path d="M 313.308125 302.278594 
L 313.308125 235.078594 
" style="fill:none;stroke:#000000;stroke-linecap:square;stroke-linejoin:miter;stroke-width:0.8;"/>
   </g>
   <g id="patch_40">
    <path d="M 195.708125 302.278594 
L 313.308125 302.278594 
" style="fill:none;stroke:#000000;stroke-linecap:square;stroke-linejoin:miter;stroke-width:0.8;"/>
   </g>
   <g id="patch_41">
    <path d="M 195.708125 235.078594 
L 313.308125 235.078594 
" style="fill:none;stroke:#000000;stroke-linecap:square;stroke-linejoin:miter;stroke-width:0.8;"/>
   </g>
   <g id="text_51">
    <!-- BayesC on DataB -->
    <g transform="translate(215.446719 229.078594)scale(0.09 -0.09)">
     <use xlink:href="#DejaVuSans-66"/>
     <use x="68.603516" xlink:href="#DejaVuSans-97"/>
     <use x="129.882812" xlink:href="#DejaVuSans-121"/>
     <use x="189.0625" xlink:href="#DejaVuSans-101"/>
     <use x="250.585938" xlink:href="#DejaVuSans-115"/>
     <use x="302.685547" xlink:href="#DejaVuSans-67"/>
     <use x="372.509766" xlink:href="#DejaVuSans-32"/>
     <use x="404.296875" xlink:href="#DejaVuSans-111"/>
     <use x="465.478516" xlink:href="#DejaVuSans-110"/>
     <use x="528.857422" xlink:href="#DejaVuSans-32"/>
     <use x="560.644531" xlink:href="#DejaVuSans-68"/>
     <use x="637.646484" xlink:href="#DejaVuSans-97"/>
     <use x="698.925781" xlink:href="#DejaVuSans-116"/>
     <use x="738.134766" xlink:href="#DejaVuSans-97"/>
     <use x="799.414062" xlink:href="#DejaVuSans-66"/>
    </g>
   </g>
  </g>
  <g id="axes_9">
   <g id="patch_42">
    <path d="M 348.588125 302.278594 
L 466.188125 302.278594 
L 466.188125 235.078594 
L 348.588125 235.078594 
z
" style="fill:#ffffff;"/>
   </g>
   <g id="matplotlib.axis_17">
    <g id="xtick_22">
     <g id="line2d_52">
      <g>
       <use style="stroke:#000000;stroke-width:0.8;" x="353.93358" xlink:href="#m792c3beaa6" y="302.278594"/>
      </g>
     </g>
     <g id="text_52">
      <!-- 0.0 -->
      <g transform="translate(345.982017 316.877031)scale(0.1 -0.1)">
       <use xlink:href="#DejaVuSans-48"/>
       <use x="63.623047" xlink:href="#DejaVuSans-46"/>
       <use x="95.410156" xlink:href="#DejaVuSans-48"/>
      </g>
     </g>
    </g>
    <g id="xtick_23">
     <g id="line2d_53">
      <g>
       <use style="stroke:#000000;stroke-width:0.8;" x="422.047216" xlink:href="#m792c3beaa6" y="302.278594"/>
      </g>
     </g>
     <g id="text_53">
      <!-- 0.5 -->
      <g transform="translate(414.095653 316.877031)scale(0.1 -0.1)">
       <use xlink:href="#DejaVuSans-48"/>
       <use x="63.623047" xlink:href="#DejaVuSans-46"/>
       <use x="95.410156" xlink:href="#DejaVuSans-53"/>
      </g>
     </g>
    </g>
   </g>
   <g id="matplotlib.axis_18">
    <g id="ytick_23">
     <g id="line2d_54">
      <g>
       <use style="stroke:#000000;stroke-width:0.8;" x="348.588125" xlink:href="#m190816f427" y="275.263911"/>
      </g>
     </g>
     <g id="text_54">
      <!-- 0.5 -->
      <g transform="translate(325.685 279.06313)scale(0.1 -0.1)">
       <use xlink:href="#DejaVuSans-48"/>
       <use x="63.623047" xlink:href="#DejaVuSans-46"/>
       <use x="95.410156" xlink:href="#DejaVuSans-53"/>
      </g>
     </g>
    </g>
    <g id="ytick_24">
     <g id="line2d_55">
      <g>
       <use style="stroke:#000000;stroke-width:0.8;" x="348.588125" xlink:href="#m190816f427" y="238.058729"/>
      </g>
     </g>
     <g id="text_55">
      <!-- 1.0 -->
      <g transform="translate(325.685 241.857948)scale(0.1 -0.1)">
       <use xlink:href="#DejaVuSans-49"/>
       <use x="63.623047" xlink:href="#DejaVuSans-46"/>
       <use x="95.410156" xlink:href="#DejaVuSans-48"/>
      </g>
     </g>
    </g>
   </g>
   <g id="line2d_56">
    <path clip-path="url(#p4b6da62131)" d="M 460.84267 238.133139 
L 458.388125 238.20755 
L 454.979034 238.20755 
L 451.706307 238.20755 
L 448.43358 238.20755 
L 443.115398 238.20755 
L 439.024489 238.28196 
L 435.34267 238.430781 
L 430.160852 238.430781 
L 425.524489 238.505191 
L 421.706307 238.579601 
L 418.160852 238.877243 
L 415.160852 239.026064 
L 409.979034 239.174884 
L 405.069943 239.472526 
L 400.43358 239.695757 
L 396.479034 239.918988 
L 392.388125 240.43986 
L 388.297216 241.109554 
L 385.160852 241.332785 
L 382.569943 242.002478 
L 379.024489 242.597761 
L 376.706307 243.490685 
L 373.979034 244.830072 
L 371.797216 246.020638 
L 369.34267 247.285614 
L 366.888125 248.55059 
L 365.388125 250.262029 
L 363.206307 251.750236 
L 362.115398 253.833726 
L 360.888125 255.768396 
L 359.660852 257.479834 
L 358.297216 260.084197 
L 357.479034 262.316508 
L 357.069943 264.84646 
L 356.660852 267.599643 
L 355.84267 270.873699 
L 355.43358 273.626883 
L 355.297216 275.487142 
L 355.024489 278.017094 
L 354.615398 280.323816 
L 354.34267 283.15141 
L 354.206307 284.788438 
L 354.069943 287.095159 
L 353.93358 289.773932 
L 353.93358 292.155064 
L 353.93358 294.461785 
L 353.93358 296.322044 
L 353.93358 298.033482 
L 353.93358 299.224048 
" style="fill:none;stroke:#1f77b4;stroke-linecap:square;stroke-width:1.5;"/>
   </g>
   <g id="patch_43">
    <path d="M 348.588125 302.278594 
L 348.588125 235.078594 
" style="fill:none;stroke:#000000;stroke-linecap:square;stroke-linejoin:miter;stroke-width:0.8;"/>
   </g>
   <g id="patch_44">
    <path d="M 466.188125 302.278594 
L 466.188125 235.078594 
" style="fill:none;stroke:#000000;stroke-linecap:square;stroke-linejoin:miter;stroke-width:0.8;"/>
   </g>
   <g id="patch_45">
    <path d="M 348.588125 302.278594 
L 466.188125 302.278594 
" style="fill:none;stroke:#000000;stroke-linecap:square;stroke-linejoin:miter;stroke-width:0.8;"/>
   </g>
   <g id="patch_46">
    <path d="M 348.588125 235.078594 
L 466.188125 235.078594 
" style="fill:none;stroke:#000000;stroke-linecap:square;stroke-linejoin:miter;stroke-width:0.8;"/>
   </g>
   <g id="text_56">
    <!-- BayesC on DataC -->
    <g transform="translate(368.271875 229.078594)scale(0.09 -0.09)">
     <use xlink:href="#DejaVuSans-66"/>
     <use x="68.603516" xlink:href="#DejaVuSans-97"/>
     <use x="129.882812" xlink:href="#DejaVuSans-121"/>
     <use x="189.0625" xlink:href="#DejaVuSans-101"/>
     <use x="250.585938" xlink:href="#DejaVuSans-115"/>
     <use x="302.685547" xlink:href="#DejaVuSans-67"/>
     <use x="372.509766" xlink:href="#DejaVuSans-32"/>
     <use x="404.296875" xlink:href="#DejaVuSans-111"/>
     <use x="465.478516" xlink:href="#DejaVuSans-110"/>
     <use x="528.857422" xlink:href="#DejaVuSans-32"/>
     <use x="560.644531" xlink:href="#DejaVuSans-68"/>
     <use x="637.646484" xlink:href="#DejaVuSans-97"/>
     <use x="698.925781" xlink:href="#DejaVuSans-116"/>
     <use x="738.134766" xlink:href="#DejaVuSans-97"/>
     <use x="799.414062" xlink:href="#DejaVuSans-67"/>
    </g>
   </g>
  </g>
 </g>
 <defs>
  <clipPath id="p7f49033a3d">
   <rect height="67.2" width="117.6" x="42.828125" y="20.038594"/>
  </clipPath>
  <clipPath id="p7dc20d8a0d">
   <rect height="67.2" width="117.6" x="195.708125" y="20.038594"/>
  </clipPath>
  <clipPath id="p729b226a5e">
   <rect height="67.2" width="117.6" x="348.588125" y="20.038594"/>
  </clipPath>
  <clipPath id="pbf12a2b16e">
   <rect height="67.2" width="117.6" x="42.828125" y="127.558594"/>
  </clipPath>
  <clipPath id="p980dedc331">
   <rect height="67.2" width="117.6" x="195.708125" y="127.558594"/>
  </clipPath>
  <clipPath id="p3eea741fd7">
   <rect height="67.2" width="117.6" x="348.588125" y="127.558594"/>
  </clipPath>
  <clipPath id="p83e2a839e8">
   <rect height="67.2" width="117.6" x="42.828125" y="235.078594"/>
  </clipPath>
  <clipPath id="p7ab051cabe">
   <rect height="67.2" width="117.6" x="195.708125" y="235.078594"/>
  </clipPath>
  <clipPath id="p4b6da62131">
   <rect height="67.2" width="117.6" x="348.588125" y="235.078594"/>
  </clipPath>
 </defs>
</svg>
